<?xml version="1.0" encoding="UTF-8"?>
<svg id="ALL" xmlns="http://www.w3.org/2000/svg" xmlns:xlink="http://www.w3.org/1999/xlink" viewBox="0 0 354.58 307.09">
  <defs>
    <style>
      .cls-1 {
        fill: #7fbc42;
      }

      .cls-2 {
        fill: url(#linear-gradient-5);
        fill-rule: evenodd;
      }

      .cls-3 {
        fill: url(#linear-gradient-4);
      }

      .cls-4 {
        fill: #9ec96d;
      }

      .cls-4, .cls-5, .cls-6 {
        isolation: isolate;
        opacity: .75;
      }

      .cls-7 {
        fill: url(#radial-gradient);
      }

      .cls-8 {
        stroke: url(#linear-gradient-2);
      }

      .cls-8, .cls-9, .cls-10 {
        fill: none;
        stroke-miterlimit: 10;
        stroke-width: 7.38px;
      }

      .cls-9 {
        stroke: url(#linear-gradient-3);
      }

      .cls-5 {
        fill: #409b67;
      }

      .cls-10 {
        stroke: url(#linear-gradient);
      }

      .cls-6 {
        fill: #bdd899;
      }
    </style>
    <radialGradient id="radial-gradient" cx="177.29" cy="153.25" fx="177.29" fy="153.25" r="131.62" gradientTransform="translate(0 306.8) scale(1 -1)" gradientUnits="userSpaceOnUse">
      <stop offset="0" stop-color="#057a3e"/>
      <stop offset="1" stop-color="#2e5136"/>
    </radialGradient>
    <linearGradient id="linear-gradient" x1="179.85" y1="144.24" x2="179.85" y2="84.78" gradientTransform="translate(0 306.8) scale(1 -1)" gradientUnits="userSpaceOnUse">
      <stop offset="0" stop-color="#057a3e"/>
      <stop offset="1" stop-color="#2e5136"/>
    </linearGradient>
    <linearGradient id="linear-gradient-2" x1="170.22" y1="137.53" x2="141.75" y2="165.98" gradientTransform="translate(0 306.8) scale(1 -1)" gradientUnits="userSpaceOnUse">
      <stop offset="0" stop-color="#057a3e"/>
      <stop offset="1" stop-color="#2e5136"/>
    </linearGradient>
    <linearGradient id="linear-gradient-3" x1="172.23" y1="157.3" x2="215.1" y2="157.3" gradientTransform="translate(0 306.8) scale(1 -1)" gradientUnits="userSpaceOnUse">
      <stop offset="0" stop-color="#057a3e"/>
      <stop offset=".32" stop-color="#0d713c"/>
      <stop offset=".83" stop-color="#245a37"/>
      <stop offset="1" stop-color="#2e5136"/>
    </linearGradient>
    <linearGradient id="linear-gradient-4" x1="177.29" y1="230.11" x2="177.29" y2="50.24" gradientTransform="translate(0 306.8) scale(1 -1)" gradientUnits="userSpaceOnUse">
      <stop offset="0" stop-color="#057a3e"/>
      <stop offset="1" stop-color="#2e5136"/>
    </linearGradient>
    <linearGradient id="linear-gradient-5" x1="144.65" y1="121.37" x2="188.82" y2="224.83" gradientTransform="translate(3.39 258.32) rotate(-1.23) scale(1 -1)" gradientUnits="userSpaceOnUse">
      <stop offset="0" stop-color="#057a3e"/>
      <stop offset="0" stop-color="#057a3e"/>
      <stop offset="0" stop-color="#09793e"/>
      <stop offset="0" stop-color="#0a793e"/>
      <stop offset=".3" stop-color="#0e733c"/>
      <stop offset=".68" stop-color="#1d6339"/>
      <stop offset="1" stop-color="#2e5136"/>
    </linearGradient>
  </defs>
  <polygon class="cls-1" points="265.94 0 88.65 0 0 153.55 88.65 307.09 265.94 307.09 354.58 153.55 265.94 0"/>
  <polygon class="cls-7" points="247.64 31.69 106.94 31.69 36.59 153.55 106.94 275.4 247.64 275.4 317.99 153.55 247.64 31.69"/>
  <g>
    <polygon class="cls-4" points="132.78 144.42 174.38 165.89 183.69 226.31 91.17 226.31 132.78 144.42"/>
    <polygon class="cls-6" points="132.78 144.42 174.38 165.89 212.09 136.97 178.57 71.18 132.78 144.42"/>
    <polygon class="cls-5" points="216.44 132.03 174.38 165.89 183.69 226.31 267.13 224.54 216.44 132.03"/>
    <g>
      <line class="cls-10" x1="174.38" y1="163.24" x2="185.31" y2="221.34"/>
      <line class="cls-8" x1="137.59" y1="146.85" x2="174.38" y2="163.24"/>
      <line class="cls-9" x1="212.96" y1="135.76" x2="174.38" y2="163.24"/>
    </g>
    <path class="cls-3" d="M279.93,224.76l-40.36-67.34c-8.16-13.61-17.18-26.67-27.01-39.12l-32.73-42.45,21.42,47.38c6.63,15.59,14.33,30.7,23.04,45.23l30.99,51.72H99.1l68.64-116.81-15.85-10.09-77.29,131.54c-2.07,3.52-1.66,8.05,1.23,11.17,1.82,1.97,4.45,2.98,7.14,2.98h188.62c2.69,0,5.34-1.02,7.16-3,2.89-3.15,3.27-7.7,1.17-11.21h0Z"/>
    <path class="cls-2" d="M182.82,87.94c3.27-5.4,2.84-11.86,2.84-17.9.12-4.11.6-8.22.28-12.34-.36-2.62-1.07-5.65-3.06-7.52-.46-.42-.94-.8-1.44-1.12,3.78-8.76,1.35-5.68,10.36-13.26.14-.27-.17-.59-.57-.47-2.13.69-4.61,2.26-6.82,3.3-.81-2.29-1.44-5.17-2.45-7.16-.18-.36-.63-.36-.73-.07.94,11.7,1.43,7.86-2.13,16.63-.95-.26-1.94-.34-2.98-.22-3.73.46-7.05,3.14-9.57,5.87-2.79,3.38-5.78,6.61-8.9,9.71-4.72,4.42-8.67,10.42-8.44,17.1-.33,4.6,1.78,8.98,1.4,13.58-.66,3.38-2.65,6.23-4.63,9.25l17.19,7.87c2.58-3.6,4.82-8.85,8.28-11.91,4.34-3.13,8.99-6.34,11.36-11.33h-.01Z"/>
  </g>
  <path class="cls-1" d="M181.55,31.18c.15,0,.32.09.42.28,1.01,1.99,1.64,4.87,2.45,7.16,2.2-1.03,4.69-2.61,6.82-3.3.06-.02.11-.02.17-.02.3,0,.5.26.39.49-9.01,7.58-6.58,4.5-10.36,13.26.5.32.98.7,1.44,1.12,1.99,1.87,2.69,4.88,3.06,7.52.32,4.12-.16,8.23-.28,12.34,0,4.11.2,8.42-.7,12.45l27.62,35.83c9.83,12.45,18.85,25.52,27.01,39.12l40.34,67.34c2.1,3.51,1.72,8.06-1.17,11.21-1.82,1.98-4.47,3-7.16,3H82.99c-2.68,0-5.32-1.01-7.14-2.98-2.89-3.13-3.3-7.65-1.23-11.17l71.37-121.53c.11-.16.21-.33.32-.49l3.22-5.48c.48-1.05.86-2.13,1.08-3.29.38-4.6-1.72-8.98-1.4-13.58-.23-6.69,3.72-12.68,8.44-17.1,3.11-3.1,6.09-6.32,8.9-9.71,2.52-2.72,5.84-5.41,9.57-5.87.32-.04.64-.06.95-.06.7,0,1.38.1,2.03.27,3.56-8.76,3.06-4.93,2.13-16.63.05-.14.17-.21.31-.21M181.55,16.41h0c-6.43,0-12.16,4.07-14.26,10.15l-1.01,2.93.25,3.09c.09,1.02.16,1.94.23,2.76-3.86,1.78-7.55,4.55-11.02,8.3l-.28.31-.27.32c-2.35,2.83-4.9,5.62-7.79,8.51-8.46,8-13.04,17.72-12.94,27.46-.16,3.9.49,7.28.98,9.79.1.5.21,1.11.31,1.64l-1.97,3.36-.12.18-.2.31-.18.32-71.37,121.53c-5.44,9.25-4.18,20.78,3.13,28.68,4.54,4.9,11.09,7.71,17.98,7.71h188.62c6.91,0,13.5-2.84,18.04-7.79,7.31-7.96,8.5-19.53,2.95-28.79l-40.36-67.34c-8.43-14.08-17.86-27.73-28.03-40.61l-23.88-30.98c.12-2.3.11-4.45.1-6.39v-1.59c.04-1,.1-2.07.16-3.17.17-3.14.38-6.71.07-10.56l-.04-.43-.06-.43c-.17-1.27-.52-3.79-1.54-6.71.66-.55,1.43-1.18,2.28-1.89l2.37-1.99,1.37-2.78c2.31-4.7,2.04-10.16-.74-14.62-2.68-4.32-7.27-6.96-12.33-7.15-2.77-2.62-6.47-4.13-10.42-4.13h-.02Z"/>
</svg>