<?xml version="1.0" encoding="UTF-8"?>
<svg id="ALL" xmlns="http://www.w3.org/2000/svg" xmlns:xlink="http://www.w3.org/1999/xlink" viewBox="0 0 1224.54 360">
  <defs>
    <style>
      .cls-1 {
        fill: url(#linear-gradient-5);
        fill-rule: evenodd;
      }

      .cls-2 {
        fill: #7fbc42;
      }

      .cls-3 {
        fill: url(#linear-gradient-4);
      }

      .cls-4 {
        fill: url(#radial-gradient);
      }

      .cls-5 {
        fill: #007934;
      }

      .cls-6 {
        stroke: url(#linear-gradient-2);
      }

      .cls-6, .cls-7, .cls-8 {
        fill: none;
        stroke-miterlimit: 10;
        stroke-width: 6px;
      }

      .cls-7 {
        stroke: url(#linear-gradient-3);
      }

      .cls-9 {
        fill: #bdd899;
      }

      .cls-9, .cls-10, .cls-11 {
        opacity: .75;
      }

      .cls-10 {
        fill: #9ec96d;
      }

      .cls-8 {
        stroke: url(#linear-gradient);
      }

      .cls-11 {
        fill: #409b67;
      }
    </style>
    <radialGradient id="radial-gradient" cx="199.89" cy="179.94" fx="199.89" fy="179.94" r="106.98" gradientUnits="userSpaceOnUse">
      <stop offset="0" stop-color="#057a3e"/>
      <stop offset="1" stop-color="#2e5136"/>
    </radialGradient>
    <linearGradient id="linear-gradient" x1="201.97" y1="187.26" x2="201.97" y2="235.59" gradientUnits="userSpaceOnUse">
      <stop offset="0" stop-color="#057a3e"/>
      <stop offset="1" stop-color="#2e5136"/>
    </linearGradient>
    <linearGradient id="linear-gradient-2" x1="194.14" y1="192.72" x2="171.01" y2="169.6" xlink:href="#linear-gradient"/>
    <linearGradient id="linear-gradient-3" x1="195.78" y1="176.65" x2="230.62" y2="176.65" gradientUnits="userSpaceOnUse">
      <stop offset="0" stop-color="#057a3e"/>
      <stop offset=".32" stop-color="#0d713c"/>
      <stop offset=".83" stop-color="#245a37"/>
      <stop offset="1" stop-color="#2e5136"/>
    </linearGradient>
    <linearGradient id="linear-gradient-4" x1="199.89" y1="117.47" x2="199.89" y2="263.67" xlink:href="#linear-gradient"/>
    <linearGradient id="linear-gradient-5" x1="171.91" y1="228.53" x2="207.81" y2="144.45" gradientTransform="translate(-2.81 -60.85) rotate(-1.23)" gradientUnits="userSpaceOnUse">
      <stop offset="0" stop-color="#057a3e"/>
      <stop offset="0" stop-color="#057a3e"/>
      <stop offset="0" stop-color="#09793e"/>
      <stop offset="0" stop-color="#0a793e"/>
      <stop offset=".3" stop-color="#0e733c"/>
      <stop offset=".68" stop-color="#1d6339"/>
      <stop offset="1" stop-color="#2e5136"/>
    </linearGradient>
  </defs>
  <g>
    <path class="cls-5" d="M413.05,111.67h82.55l-4.8,24.56h-53.61l-5.9,30.21h45.47l-4.8,24.56h-45.4l-7.33,35.31h55.4l-4.8,24.56h-84.61l27.84-139.2Z"/>
    <path class="cls-5" d="M491.06,194.57c0-49.2,33.07-85.46,70.79-85.46,31.81,0,52.32,21.88,52.32,58.87,0,49.2-33.07,85.45-70.79,85.45-31.81,0-52.32-21.88-52.32-58.87ZM584.17,169.89c0-22.11-8.37-35.52-23.81-35.52-19.79,0-39.31,26.02-39.31,58.28,0,22.11,8.37,35.52,23.81,35.52,19.79,0,39.31-26.02,39.31-58.28ZM522.11,245.02l29.64.23c3.34,13.64,17.51,19.72,32.08,19.72,5.53,0,9.57-.78,14.05-1.99l1.21,22.17c-4.9,1.91-12.11,3.39-17.09,3.39-30.43,0-50.84-14.12-59.89-43.52Z"/>
    <path class="cls-5" d="M640.16,111.67h29.28l-15.25,76.26c-1,5.78-1.78,10.98-1.78,16.11,0,15.75,5.55,24.14,21.15,24.14,13.44,0,22.15-10.07,27.23-35.88l16.18-80.63h28.58l-16.26,80.22c-8.39,42.67-26.78,61.54-56.59,61.54-32.87,0-49.58-15.65-49.58-48.4,0-6.26,1.48-15.25,2.76-22.44l14.27-70.93Z"/>
    <path class="cls-5" d="M765.45,111.67h29.28l-27.84,139.2h-29.28l27.84-139.2Z"/>
    <path class="cls-5" d="M815.43,111.67h29.28l-23.04,114.64h52.81l-4.8,24.56h-82.1l27.84-139.2Z"/>
    <path class="cls-5" d="M913.67,111.67h29.28l-27.84,139.2h-29.28l27.84-139.2Z"/>
    <path class="cls-5" d="M959.38,111.67h43.98c27.21,0,47.69,10.18,47.69,36.96,0,38.85-29.15,53.88-64.23,53.88h-16.43l-9.57,48.36h-29.28l27.84-139.2ZM989.94,179.36c20.67,0,32.18-9.09,32.18-26.43,0-12.54-8.49-18.11-23.31-18.11h-14.94l-8.67,44.54h14.74Z"/>
    <path class="cls-5" d="M1081.22,200.49l-22.22-88.81h30.34l5.91,33.42c1.9,10.6,3.4,19.69,5.34,30.68h.82c5.82-10.92,10.89-20.47,17.06-31.03l19.4-33.07h31.47l-58.83,88.81-10.16,50.39h-29.11l9.99-50.39Z"/>
  </g>
  <g>
    <polygon class="cls-2" points="271.94 55.14 127.84 55.14 55.79 179.94 127.84 304.73 271.94 304.73 343.99 179.94 271.94 55.14"/>
    <polygon class="cls-4" points="257.07 80.9 142.71 80.9 85.53 179.94 142.71 278.98 257.07 278.98 314.25 179.94 257.07 80.9"/>
    <g>
      <polygon class="cls-10" points="163.71 172.52 197.52 189.97 205.09 239.08 129.89 239.08 163.71 172.52"/>
      <polygon class="cls-9" points="163.71 172.52 197.52 189.97 228.17 166.47 200.93 112.99 163.71 172.52"/>
      <polygon class="cls-11" points="231.71 162.45 197.52 189.97 205.09 239.08 272.91 237.64 231.71 162.45"/>
      <g>
        <line class="cls-8" x1="197.52" y1="187.82" x2="206.41" y2="235.04"/>
        <line class="cls-6" x1="167.62" y1="174.5" x2="197.52" y2="187.82"/>
        <line class="cls-7" x1="228.88" y1="165.48" x2="197.52" y2="187.82"/>
      </g>
      <path class="cls-3" d="M283.31,237.82l-32.8-54.73c-6.63-11.06-13.96-21.68-21.95-31.8l-26.6-34.5,17.41,38.51c5.39,12.67,11.65,24.95,18.73,36.76l25.19,42.04h-126.95l55.79-94.94-12.88-8.2-62.82,106.91c-1.68,2.86-1.35,6.54,1,9.08,1.48,1.6,3.62,2.42,5.8,2.42h153.31c2.19,0,4.34-.83,5.82-2.44,2.35-2.56,2.66-6.26.95-9.11Z"/>
      <path class="cls-1" d="M204.38,126.62c2.66-4.39,2.31-9.64,2.31-14.55.1-3.34.49-6.68.23-10.03-.29-2.13-.87-4.59-2.49-6.11-.37-.34-.76-.65-1.17-.91,3.07-7.12,1.1-4.62,8.42-10.78.11-.22-.14-.48-.46-.38-1.73.56-3.75,1.84-5.54,2.68-.66-1.86-1.17-4.2-1.99-5.82-.15-.29-.51-.29-.59-.06.76,9.51,1.16,6.39-1.73,13.52-.77-.21-1.58-.28-2.42-.18-3.03.37-5.73,2.55-7.78,4.77-2.27,2.75-4.7,5.37-7.23,7.89-3.84,3.59-7.05,8.47-6.86,13.9-.27,3.74,1.45,7.3,1.14,11.04-.54,2.75-2.15,5.06-3.76,7.52l13.97,6.4c2.1-2.93,3.92-7.19,6.73-9.68,3.53-2.54,7.31-5.15,9.23-9.21Z"/>
    </g>
    <path class="cls-2" d="M203.35,80.48c.12,0,.26.07.34.23.82,1.62,1.33,3.96,1.99,5.82,1.79-.84,3.81-2.12,5.54-2.68.05-.02.09-.02.14-.02.24,0,.41.21.32.4-7.32,6.16-5.35,3.66-8.42,10.78.41.26.8.57,1.17.91,1.62,1.52,2.19,3.97,2.49,6.11.26,3.35-.13,6.69-.23,10.03,0,3.34.16,6.84-.57,10.12l22.45,29.12c7.99,10.12,15.32,20.74,21.95,31.8l32.79,54.73c1.71,2.85,1.4,6.55-.95,9.11-1.48,1.61-3.63,2.44-5.82,2.44H123.24c-2.18,0-4.32-.82-5.8-2.42-2.35-2.54-2.68-6.22-1-9.08l58.01-98.78c.09-.13.17-.27.26-.4l2.62-4.45c.39-.85.7-1.73.88-2.67.31-3.74-1.4-7.3-1.14-11.04-.19-5.44,3.02-10.31,6.86-13.9,2.53-2.52,4.95-5.14,7.23-7.89,2.05-2.21,4.75-4.4,7.78-4.77.26-.03.52-.05.77-.05.57,0,1.12.08,1.65.22,2.89-7.12,2.49-4.01,1.73-13.52.04-.11.14-.17.25-.17M203.35,68.48h0c-5.23,0-9.89,3.31-11.59,8.25l-.82,2.38.2,2.51c.07.83.13,1.58.19,2.24-3.14,1.45-6.14,3.7-8.96,6.75l-.23.25-.22.26c-1.9,2.3-3.98,4.57-6.33,6.92-6.88,6.5-10.59,14.4-10.51,22.32-.13,3.17.4,5.92.8,7.96.08.41.17.9.25,1.33l-1.6,2.73-.1.15-.16.25-.15.26-58.01,98.78c-4.42,7.52-3.4,16.89,2.54,23.31,3.69,3.98,9.01,6.27,14.61,6.27h153.31c5.62,0,10.97-2.31,14.66-6.33,5.94-6.47,6.91-15.87,2.4-23.4l-32.8-54.73c-6.85-11.44-14.52-22.54-22.78-33.01l-19.41-25.18c.1-1.87.09-3.62.08-5.19,0-.43,0-.86,0-1.29.03-.82.08-1.68.13-2.58.15-2.55.31-5.45.06-8.58l-.03-.35-.05-.35c-.14-1.03-.42-3.08-1.25-5.45.54-.45,1.16-.96,1.85-1.54l1.93-1.62,1.11-2.26c1.88-3.82,1.66-8.26-.6-11.88-2.18-3.51-5.91-5.66-10.02-5.81-2.25-2.13-5.26-3.36-8.47-3.36h0Z"/>
  </g>
</svg>