<?xml version="1.0" encoding="UTF-8"?>
<svg id="ALL" xmlns="http://www.w3.org/2000/svg" xmlns:xlink="http://www.w3.org/1999/xlink" viewBox="36 36 288 288">
  <defs>
    <style>
      .cls-1 {
        fill: url(#linear-gradient-5);
        fill-rule: evenodd;
      }

      .cls-2 {
        fill: #7fbc42;
      }

      .cls-3 {
        fill: url(#linear-gradient-4);
      }

      .cls-4 {
        fill: url(#radial-gradient);
      }

      .cls-5 {
        stroke: url(#linear-gradient-2);
      }

      .cls-5, .cls-6, .cls-7 {
        fill: none;
        stroke-miterlimit: 10;
        stroke-width: 6px;
      }

      .cls-6 {
        stroke: url(#linear-gradient-3);
      }

      .cls-8 {
        fill: #bdd899;
      }

      .cls-8, .cls-9, .cls-10 {
        opacity: .75;
      }

      .cls-9 {
        fill: #9ec96d;
      }

      .cls-7 {
        stroke: url(#linear-gradient);
      }

      .cls-10 {
        fill: #409b67;
      }
    </style>
    <radialGradient id="radial-gradient" cx="180" cy="180" fx="180" fy="180" r="106.98" gradientUnits="userSpaceOnUse">
      <stop offset="0" stop-color="#057a3e"/>
      <stop offset="1" stop-color="#2e5136"/>
    </radialGradient>
    <linearGradient id="linear-gradient" x1="182.08" y1="187.32" x2="182.08" y2="235.66" gradientUnits="userSpaceOnUse">
      <stop offset="0" stop-color="#057a3e"/>
      <stop offset="1" stop-color="#2e5136"/>
    </linearGradient>
    <linearGradient id="linear-gradient-2" x1="174.25" y1="192.78" x2="151.12" y2="169.66" xlink:href="#linear-gradient"/>
    <linearGradient id="linear-gradient-3" x1="175.89" y1="176.71" x2="210.73" y2="176.71" gradientUnits="userSpaceOnUse">
      <stop offset="0" stop-color="#057a3e"/>
      <stop offset=".32" stop-color="#0d713c"/>
      <stop offset=".83" stop-color="#245a37"/>
      <stop offset="1" stop-color="#2e5136"/>
    </linearGradient>
    <linearGradient id="linear-gradient-4" x1="180" y1="117.53" x2="180" y2="263.73" xlink:href="#linear-gradient"/>
    <linearGradient id="linear-gradient-5" x1="152.16" y1="215.68" x2="188.06" y2="131.59" gradientTransform="translate(-2.68 -48.36) rotate(-1.23)" gradientUnits="userSpaceOnUse">
      <stop offset="0" stop-color="#057a3e"/>
      <stop offset="0" stop-color="#057a3e"/>
      <stop offset="0" stop-color="#09793e"/>
      <stop offset="0" stop-color="#0a793e"/>
      <stop offset=".3" stop-color="#0e733c"/>
      <stop offset=".68" stop-color="#1d6339"/>
      <stop offset="1" stop-color="#2e5136"/>
    </linearGradient>
  </defs>
  <polygon class="cls-2" points="252.05 55.2 107.95 55.2 35.9 180 107.95 304.8 252.05 304.8 324.1 180 252.05 55.2"/>
  <polygon class="cls-4" points="237.18 80.96 122.82 80.96 65.64 180 122.82 279.04 237.18 279.04 294.36 180 237.18 80.96"/>
  <g>
    <polygon class="cls-9" points="143.82 172.58 177.63 190.03 185.2 239.14 110 239.14 143.82 172.58"/>
    <polygon class="cls-8" points="143.82 172.58 177.63 190.03 208.28 166.53 181.04 113.05 143.82 172.58"/>
    <polygon class="cls-10" points="211.82 162.51 177.63 190.03 185.2 239.14 253.02 237.7 211.82 162.51"/>
    <g>
      <line class="cls-7" x1="177.63" y1="187.88" x2="186.52" y2="235.1"/>
      <line class="cls-5" x1="147.73" y1="174.56" x2="177.63" y2="187.88"/>
      <line class="cls-6" x1="208.99" y1="165.54" x2="177.63" y2="187.88"/>
    </g>
    <path class="cls-3" d="M263.42,237.88l-32.8-54.73c-6.63-11.06-13.96-21.68-21.95-31.8l-26.6-34.5,17.41,38.51c5.39,12.67,11.65,24.95,18.73,36.76l25.19,42.04h-126.95l55.79-94.94-12.88-8.2-62.82,106.91c-1.68,2.86-1.35,6.54,1,9.08,1.48,1.6,3.62,2.42,5.8,2.42h153.31c2.19,0,4.34-.83,5.82-2.44,2.35-2.56,2.66-6.26.95-9.11Z"/>
    <path class="cls-1" d="M184.49,126.68c2.66-4.39,2.31-9.64,2.31-14.55.1-3.34.49-6.68.23-10.03-.29-2.13-.87-4.59-2.49-6.11-.37-.34-.76-.65-1.17-.91,3.07-7.12,1.1-4.62,8.42-10.78.11-.22-.14-.48-.46-.38-1.73.56-3.75,1.84-5.54,2.68-.66-1.86-1.17-4.2-1.99-5.82-.15-.29-.51-.29-.59-.06.76,9.51,1.16,6.39-1.73,13.52-.77-.21-1.58-.28-2.42-.18-3.03.37-5.73,2.55-7.78,4.77-2.27,2.75-4.7,5.37-7.23,7.89-3.84,3.59-7.05,8.47-6.86,13.9-.27,3.74,1.45,7.3,1.14,11.04-.54,2.75-2.15,5.06-3.76,7.52l13.97,6.4c2.1-2.93,3.92-7.19,6.73-9.68,3.53-2.54,7.31-5.15,9.23-9.21Z"/>
  </g>
  <path class="cls-2" d="M183.46,80.54c.12,0,.26.07.34.23.82,1.62,1.33,3.96,1.99,5.82,1.79-.84,3.81-2.12,5.54-2.68.05-.02.09-.02.14-.02.24,0,.41.21.32.4-7.32,6.16-5.35,3.66-8.42,10.78.41.26.8.57,1.17.91,1.62,1.52,2.19,3.97,2.49,6.11.26,3.35-.13,6.69-.23,10.03,0,3.34.16,6.84-.57,10.12l22.45,29.12c7.99,10.12,15.32,20.74,21.95,31.8l32.79,54.73c1.71,2.85,1.4,6.55-.95,9.11-1.48,1.61-3.63,2.44-5.82,2.44H103.35c-2.18,0-4.32-.82-5.8-2.42-2.35-2.54-2.68-6.22-1-9.08l58.01-98.78c.09-.13.17-.27.26-.4l2.62-4.45c.39-.85.7-1.73.88-2.67.31-3.74-1.4-7.3-1.14-11.04-.19-5.44,3.02-10.31,6.86-13.9,2.53-2.52,4.95-5.14,7.23-7.89,2.05-2.21,4.75-4.4,7.78-4.77.26-.03.52-.05.77-.05.57,0,1.12.08,1.65.22,2.89-7.12,2.49-4.01,1.73-13.52.04-.11.14-.17.25-.17M183.46,68.54h0c-5.23,0-9.88,3.31-11.59,8.25l-.82,2.38.2,2.51c.07.83.13,1.58.19,2.24-3.14,1.45-6.14,3.7-8.96,6.75l-.23.25-.22.26c-1.91,2.3-3.98,4.57-6.33,6.92-6.88,6.5-10.6,14.4-10.52,22.32-.13,3.17.4,5.92.8,7.96.08.41.17.9.25,1.33l-1.6,2.73-.1.15-.16.25-.15.26-58.01,98.78c-4.42,7.52-3.4,16.89,2.54,23.31,3.69,3.98,9.01,6.27,14.61,6.27h153.31c5.62,0,10.97-2.31,14.66-6.33,5.94-6.47,6.91-15.87,2.4-23.4l-32.8-54.73c-6.85-11.44-14.52-22.54-22.78-33.01l-19.41-25.18c.1-1.87.09-3.62.08-5.19,0-.43,0-.86,0-1.29.03-.81.08-1.68.13-2.58.14-2.55.31-5.45.06-8.58l-.03-.35-.05-.35c-.14-1.03-.42-3.08-1.25-5.45.54-.45,1.16-.96,1.85-1.54l1.93-1.62,1.11-2.26c1.88-3.82,1.66-8.26-.6-11.88-2.18-3.51-5.91-5.66-10.02-5.81-2.25-2.13-5.26-3.36-8.47-3.36h0Z"/>
</svg>