<?xml version="1.0" encoding="UTF-8"?>
<svg id="Layer_1" xmlns="http://www.w3.org/2000/svg" version="1.1" viewBox="0 0 16 16">
  <defs>
    <style>
      .st0, .st1, .st2 {
        fill-rule: evenodd;
      }

      .st0 {
        fill: #dce6e8;
      }

      .st1 {
        stroke-width: 1.2px;
      }

      .st1, .st2 {
        fill: none;
        stroke: #dce6e8;
        stroke-miterlimit: 10;
      }

      .st2 {
        stroke-width: 1.5px;
      }
    </style>
  </defs>
  <path class="st0" d="M10,14.4l-4.2.4-.4-.4.4-4.2h.9c0,0-.3,3-.3,3L15.2,4.4l.6.6L7,13.8l3.1-.3v.9ZM11.2,4.9l.4-4.2-.4-.4-4.2.4v.9c0,0,3-.3,3-.3L1.2,10.2l.6.6L10.6,2l-.3,3.1h.9Z"/>
  <path class="st1" d="M7.6,22.3"/>
  <path class="st2" d="M0,3.2c6.7,0,12.1,5.3,12.1,11.9s0,.6,0,.9"/>
</svg>
