<?xml version="1.0" encoding="UTF-8"?>
<svg id="Layer_1" xmlns="http://www.w3.org/2000/svg" version="1.1" viewBox="0 0 370 370">
  <!-- Generator: Adobe Illustrator 30.4.0, SVG Export Plug-In . SVG Version: 2.1.4 Build 226)  -->
  <defs>
    <style>
      .st0 {
        fill: #fff;
        stroke-linejoin: round;
        stroke-width: 2.5px;
      }

      .st0, .st1 {
        stroke: #2a2f34;
      }

      .st2 {
        stroke: #d8e4d7;
      }

      .st2, .st1 {
        fill: none;
        stroke-width: 2px;
      }
    </style>
  </defs>
  <circle class="st2" cx="130.84" cy="22.5" r="13.25"/>
  <circle class="st2" cx="161.32" cy="27.8" r="13.25"/>
  <circle class="st2" cx="206.38" cy="22.5" r="13.25"/>
  <circle class="st2" cx="236.86" cy="29.13" r="13.25"/>
  <circle class="st2" cx="69.87" cy="54.31" r="13.25"/>
  <circle class="st2" cx="106.98" cy="60.93" r="13.25"/>
  <circle class="st2" cx="150.71" cy="52.98" r="13.25"/>
  <circle class="st2" cx="181.2" cy="59.61" r="13.25"/>
  <circle class="st2" cx="224.93" cy="54.31" r="13.25"/>
  <circle class="st2" cx="254.09" cy="60.93" r="13.25"/>
  <circle class="st2" cx="292.52" cy="52.98" r="13.25"/>
  <circle class="st2" cx="56.62" cy="86.11" r="13.25"/>
  <circle class="st2" cx="88.43" cy="92.74" r="13.25"/>
  <circle class="st2" cx="132.16" cy="84.79" r="13.25"/>
  <circle class="st2" cx="88.43" cy="27.8" r="13.25"/>
  <circle class="st2" cx="297.82" cy="15.88" r="13.25"/>
  <circle class="st2" cx="24.81" cy="307.44" r="13.25"/>
  <circle class="st2" cx="279.27" cy="84.79" r="13.25"/>
  <circle class="st2" cx="312.29" cy="84.79" r="13.25"/>
  <circle class="st2" cx="32.76" cy="123.22" r="13.25"/>
  <circle class="st2" cx="76.5" cy="117.92" r="13.25"/>
  <circle class="st2" cx="294.95" cy="109.97" r="13.25"/>
  <circle class="st2" cx="336.25" cy="117.92" r="13.25"/>
  <circle class="st2" cx="19.51" cy="149.73" r="13.25"/>
  <circle class="st2" cx="51.32" cy="155.03" r="13.25"/>
  <circle class="st2" cx="24.81" cy="55.65" r="13.25"/>
  <circle class="st2" cx="342.87" cy="66.23" r="13.25"/>
  <circle class="st2" cx="317.7" cy="149.73" r="13.25"/>
  <circle class="st2" cx="348.18" cy="156.35" r="13.25"/>
  <circle class="st2" cx="32.76" cy="186.83" r="13.25"/>
  <circle class="st2" cx="334.93" cy="39.73" r="13.25"/>
  <circle class="st2" cx="19.51" cy="278.23" r="13.25"/>
  <circle class="st2" cx="336.25" cy="181.53" r="13.25"/>
  <circle class="st2" cx="19.51" cy="218.64" r="13.25"/>
  <circle class="st2" cx="56.62" cy="215.99" r="13.25"/>
  <circle class="st2" cx="93.73" cy="340.57" r="13.25"/>
  <circle class="st2" cx="24.81" cy="86.11" r="13.25"/>
  <circle class="st2" cx="317.7" cy="218.64" r="13.25"/>
  <circle class="st2" cx="348.18" cy="212.02" r="13.25"/>
  <circle class="st2" cx="32.76" cy="245.15" r="13.25"/>
  <circle class="st2" cx="68.67" cy="245.81" r="13.25"/>
  <circle class="st2" cx="193.13" cy="314.06" r="13.25"/>
  <circle class="st2" cx="336.25" cy="250.45" r="13.25"/>
  <circle class="st2" cx="56.62" cy="282.26" r="13.25"/>
  <circle class="st2" cx="88.43" cy="275.63" r="13.25"/>
  <circle class="st2" cx="130.18" cy="287.55" r="13.25"/>
  <circle class="st2" cx="277.95" cy="353.82" r="13.25"/>
  <circle class="st2" cx="55.42" cy="353.82" r="13.25"/>
  <circle class="st2" cx="334.93" cy="315.39" r="13.25"/>
  <circle class="st2" cx="279.27" cy="283.58" r="13.25"/>
  <circle class="st2" cx="311.07" cy="275.63" r="13.25"/>
  <circle class="st2" cx="69.87" cy="314.06" r="13.25"/>
  <circle class="st2" cx="106.98" cy="307.44" r="13.25"/>
  <circle class="st2" cx="150.71" cy="315.39" r="13.25"/>
  <circle class="st2" cx="319.04" cy="345.87" r="13.25"/>
  <circle class="st2" cx="224.93" cy="314.06" r="13.25"/>
  <circle class="st2" cx="254.09" cy="307.44" r="13.25"/>
  <circle class="st2" cx="292.52" cy="315.39" r="13.25"/>
  <circle class="st2" cx="130.84" cy="345.87" r="13.25"/>
  <circle class="st2" cx="161.32" cy="340.57" r="13.25"/>
  <circle class="st2" cx="206.38" cy="345.87" r="13.25"/>
  <circle class="st2" cx="236.86" cy="340.57" r="13.25"/>
  <polygon class="st0" points="190.48 71.02 294.95 128.02 190.48 184.99 85.99 128.02 190.48 71.02"/>
  <polygon class="st0" points="85.99 128.02 85.99 241.98 190.48 298.98 190.48 184.99 85.99 128.02"/>
  <polygon class="st0" points="294.95 128.02 294.95 241.98 190.48 298.98 190.48 184.99 294.95 128.02"/>
  <line class="st1" x1="190.48" y1="184.99" x2="85.99" y2="128.02"/>
  <line class="st1" x1="190.48" y1="184.99" x2="294.95" y2="128.02"/>
  <line class="st1" x1="190.48" y1="184.99" x2="190.48" y2="298.98"/>
</svg>