<svg xmlns="http://www.w3.org/2000/svg" width="200" height="200" viewBox="0 0 200 200" role="img" aria-label="Oak Ridge National Laboratory">
  <path d="M 76.00 16.71 L 84.00 25.17 L 84.54 24.00 L 84.48 22.00 L 85.00 21.45 L 87.46 26.00 L 88.18 31.00 L 87.11 54.00 L 87.66 58.00 L 88.80 61.00 L 91.00 63.39 L 93.00 63.45 L 96.08 60.00 L 98.06 56.00 L 101.59 45.00 L 103.83 41.00 L 107.00 37.36 L 107.47 38.00 L 107.30 40.00 L 108.00 41.08 L 116.00 32.61 L 122.00 27.69 L 122.49 28.00 L 119.47 34.00 L 119.43 37.00 L 120.00 38.99 L 121.00 39.60 L 124.00 36.25 L 126.20 35.00 L 126.34 37.00 L 125.26 41.00 L 122.50 47.00 L 117.90 54.00 L 117.30 57.00 L 120.00 59.29 L 123.00 60.55 L 126.00 60.59 L 130.00 58.85 L 132.00 58.61 L 132.36 59.00 L 131.57 60.00 L 132.00 60.70 L 136.00 59.10 L 136.34 60.00 L 135.04 62.00 L 129.44 68.00 L 130.00 68.71 L 134.24 70.00 L 122.00 73.80 L 114.81 80.00 L 109.55 87.00 L 107.81 91.00 L 106.68 95.00 L 106.08 102.00 L 106.67 104.00 L 108.00 104.64 L 112.00 102.26 L 118.21 95.00 L 127.00 82.51 L 127.62 86.00 L 129.00 86.89 L 132.00 85.40 L 139.00 79.69 L 139.39 81.00 L 138.14 85.00 L 133.79 94.00 L 132.65 97.00 L 132.71 99.00 L 133.00 99.28 L 140.00 95.84 L 142.22 96.00 L 137.00 102.25 L 128.69 109.00 L 123.98 114.00 L 121.70 119.00 L 123.00 122.81 L 125.00 124.47 L 127.00 125.18 L 130.00 124.11 L 133.84 121.00 L 139.37 114.00 L 142.63 107.00 L 146.00 101.48 L 146.60 102.00 L 147.93 106.00 L 149.00 106.46 L 156.00 103.75 L 156.41 104.00 L 156.40 108.00 L 153.50 115.00 L 153.72 116.00 L 156.00 116.62 L 160.00 115.70 L 160.97 116.00 L 160.40 117.00 L 156.00 121.13 L 150.00 125.47 L 134.00 132.52 L 127.00 136.81 L 123.16 140.00 L 120.60 143.00 L 118.98 146.00 L 118.41 149.00 L 118.58 153.00 L 119.98 156.00 L 123.49 161.00 L 129.00 166.50 L 134.00 170.25 L 141.00 173.28 L 146.00 174.17 L 151.00 173.60 L 152.15 176.00 L 152.00 177.35 L 142.00 177.19 L 137.00 175.42 L 132.00 172.20 L 123.94 165.00 L 116.30 155.00 L 110.47 149.00 L 107.00 146.59 L 103.00 144.72 L 95.00 142.66 L 87.00 142.33 L 81.00 142.72 L 66.00 145.53 L 64.92 145.00 L 69.00 143.21 L 69.20 142.00 L 66.00 140.79 L 59.00 139.39 L 57.05 138.00 L 59.00 136.62 L 67.37 134.00 L 67.00 129.62 L 72.00 130.54 L 82.00 131.19 L 88.00 130.27 L 90.00 129.01 L 92.22 126.00 L 92.49 122.00 L 91.00 119.44 L 87.00 116.77 L 82.00 115.27 L 73.00 115.49 L 51.00 120.41 L 47.00 120.73 L 44.00 120.33 L 41.00 119.17 L 35.66 116.00 L 36.33 115.00 L 40.00 113.29 L 44.00 110.09 L 46.23 107.00 L 46.20 106.00 L 42.00 101.70 L 31.41 95.00 L 30.59 94.00 L 33.00 93.71 L 33.82 93.00 L 30.00 89.76 L 27.23 86.00 L 28.00 85.50 L 29.00 85.67 L 36.00 88.83 L 36.99 88.00 L 35.69 85.00 L 36.00 84.39 L 41.00 84.67 L 51.00 86.60 L 61.00 90.29 L 65.00 90.56 L 66.44 90.00 L 68.21 88.00 L 70.11 84.00 L 70.33 82.00 L 69.31 79.00 L 67.00 76.41 L 60.00 71.64 L 55.00 69.57 L 36.00 65.12 L 32.72 63.00 L 31.39 61.00 L 32.00 60.45 L 35.00 61.46 L 38.00 61.69 L 39.32 61.00 L 39.67 58.00 L 39.45 56.00 L 38.37 54.00 L 32.56 47.00 L 33.00 46.39 L 36.00 46.73 L 40.00 48.33 L 40.31 47.00 L 39.00 41.98 L 47.00 46.50 L 54.00 51.32 L 57.00 51.25 L 58.32 50.00 L 59.89 47.00 L 59.15 44.00 L 55.60 38.00 L 52.16 30.00 L 53.00 29.51 L 55.29 30.00 L 53.42 23.00 L 53.61 22.00 L 56.00 22.71 L 59.00 25.15 L 61.00 26.07 L 62.00 23.67 L 63.00 24.02 L 66.16 27.00 L 70.10 32.00 L 72.00 33.52 L 74.00 34.21 L 75.28 33.00 L 73.55 28.00 L 74.00 27.65 L 77.00 29.28 L 78.13 27.00 L 75.90 18.00 L 76.00 16.71 Z" fill="#007833" fill-rule="evenodd"/>
</svg>
